<svg version="1.0" xmlns="http://www.w3.org/2000/svg"
viewBox="0 0 2000.000000 2000.000000"
 preserveAspectRatio="xMidYMid meet">

<g transform="translate(0.000000,2000.000000) scale(0.100000,-0.100000)"
fill="#000" stroke="none">
<path d="M9115 17604 c-4821 -9 -6626 -16 -6670 -24 -322 -60 -570 -301 -631
-613 -17 -85 -15 -294 40 -5145 l58 -5057 -70 -165 c-283 -669 -484 -1312
-616 -1970 -58 -290 -81 -454 -132 -927 l-5 -53 -172 0 c-187 0 -217 -7 -217
-54 0 -43 14 -46 201 -46 l177 0 5 -377 c6 -387 14 -500 58 -743 132 -743 459
-1209 938 -1338 82 -22 118 -25 251 -26 231 -1 414 45 657 165 286 142 548
341 853 649 362 364 767 913 1045 1413 34 61 53 86 63 82 65 -25 291 -82 452
-115 186 -38 534 -90 603 -90 17 0 37 -4 43 -8 22 -14 245 -773 285 -966 23
-116 48 -318 40 -327 -3 -3 -103 -11 -222 -17 -295 -16 -685 -47 -974 -77
-678 -72 -1065 -160 -1144 -261 -27 -34 -28 -93 -2 -126 109 -138 776 -251
1926 -327 628 -42 1042 -57 1932 -73 1978 -34 4032 70 4873 247 301 63 438
141 415 233 -10 40 -77 97 -142 122 -309 117 -1098 215 -2206 274 -136 7 -252
17 -256 22 -5 5 -20 72 -35 149 -62 318 -191 862 -282 1184 -19 68 -33 128
-32 133 2 5 33 -13 68 -40 302 -227 619 -373 930 -428 127 -23 356 -23 471 -1
350 68 627 284 754 587 l32 75 3283 5 c2991 5 3284 6 3293 21 15 24 1 66 -25
73 -13 3 -82 6 -154 6 l-131 0 5 50 c2 28 -1 63 -8 80 -7 16 -71 84 -144 151
-72 67 -176 165 -231 218 -55 53 -174 166 -265 251 -181 171 -298 281 -435
411 -49 47 -171 162 -270 255 -99 93 -187 176 -196 184 -182 173 -372 352
-439 415 -47 43 -133 125 -191 181 l-106 101 75 7 c41 3 462 6 934 6 745 0
869 2 936 16 288 59 517 279 593 569 19 73 21 106 20 380 -3 635 -110 9924
-116 9995 -7 86 -50 224 -94 302 -117 206 -325 350 -561 388 -76 12 -146 12
-9135 -6z m9177 -103 c248 -64 434 -249 498 -496 21 -79 22 -159 80 -5200 63
-5522 63 -5178 11 -5316 -73 -194 -257 -355 -465 -409 -67 -17 -138 -18 -1068
-21 -786 -2 -999 0 -1011 10 -14 11 -13 17 5 58 28 64 22 146 -16 203 -22 34
-44 50 -111 81 -136 64 -208 62 -285 -7 -29 -26 -51 -67 -105 -194 l-68 -160
-1788 0 -1788 0 -6 38 c-18 106 -43 127 -150 125 l-74 -1 -9 44 c-8 35 -4 65
19 161 16 65 29 126 29 135 0 17 144 18 3188 18 2869 0 3190 2 3210 16 l22 15
0 5174 0 5174 -22 15 c-20 14 -794 16 -7978 16 -7184 0 -7958 -2 -7978 -16
l-22 -15 0 -4610 0 -4609 -87 -152 c-48 -84 -137 -251 -199 -372 l-112 -219
-6 414 c-16 970 -107 9229 -104 9384 4 153 7 177 30 243 39 108 84 177 173
267 90 90 173 140 295 176 l75 22 5930 12 c3262 6 6803 12 7871 13 1888 2
1943 1 2016 -17z m18 -5725 l0 -5104 -3150 -1 -3150 0 0 77 c0 157 -57 274
-156 321 l-49 23 -1 57 c-1 111 -86 240 -179 271 -24 8 -63 11 -107 7 -62 -5
-69 -4 -79 15 -21 39 -93 110 -132 129 -21 11 -61 23 -88 26 -43 5 -59 1 -125
-31 -42 -21 -78 -35 -81 -32 -3 3 10 18 28 33 158 130 269 371 269 583 l0 60
534 0 c473 0 536 2 550 16 14 14 16 91 16 701 0 625 -1 688 -17 705 -15 17
-90 18 -1981 18 -1815 0 -1967 -1 -1984 -17 -17 -15 -18 -50 -18 -704 0 -612
2 -689 16 -703 14 -14 70 -16 465 -16 441 0 449 0 449 -20 0 -36 62 -214 103
-295 122 -245 317 -441 541 -546 78 -36 224 -79 272 -79 18 0 23 -9 34 -62 6
-35 41 -164 76 -288 35 -124 64 -231 64 -238 0 -10 -275 -12 -1356 -10 l-1357
3 -13 46 c-17 59 -82 132 -136 154 -53 22 -141 23 -188 3 -50 -21 -98 -64
-120 -108 -18 -35 -23 -37 -75 -43 -32 -3 -75 -17 -102 -31 -43 -25 -53 -26
-193 -26 l-148 0 1 53 c2 95 -68 154 -154 128 -50 -15 -149 -91 -184 -141
l-28 -40 -148 0 c-81 0 -150 3 -152 8 -2 4 4 69 14 145 114 853 57 1654 -155
2185 -265 660 -752 942 -1360 787 -621 -159 -1336 -794 -1958 -1740 -54 -82
-101 -151 -103 -154 -3 -2 -5 2017 -5 4487 l0 4490 7900 1 7900 1 0 -5104z
m-13245 -2052 c39 -9 183 -154 251 -254 148 -217 263 -534 324 -895 67 -395
72 -928 14 -1440 -210 -1857 -1154 -3951 -2280 -5057 -299 -293 -532 -466
-809 -599 -217 -105 -390 -149 -586 -149 -171 0 -193 8 -282 98 -133 135 -215
260 -297 454 -233 553 -287 1348 -154 2278 327 2292 1697 4744 3021 5408 169
85 326 139 468 162 62 9 277 5 330 -6z m397 -191 c279 -226 477 -671 552
-1245 55 -419 46 -957 -25 -1488 -253 -1901 -1277 -4035 -2419 -5042 -569
-502 -1092 -694 -1510 -555 l-65 21 75 8 c617 63 1293 563 1945 1438 839 1128
1496 2749 1704 4206 57 395 66 523 66 959 0 409 -7 518 -51 775 -67 395 -193
726 -364 954 l-51 68 38 -23 c21 -12 68 -47 105 -76z m4966 -279 c365 -75 688
-437 768 -861 23 -123 15 -330 -16 -428 -37 -117 -88 -203 -166 -282 -39 -40
-77 -73 -82 -73 -6 0 2 28 18 63 71 151 97 371 66 562 -75 452 -409 851 -798
954 -40 11 -91 22 -113 26 l-40 7 40 15 c99 36 206 41 323 17z m753 -16 c76
-35 133 -88 166 -156 24 -49 28 -69 28 -142 0 -108 -26 -169 -98 -236 l-50
-48 -33 65 c-27 53 -30 67 -19 79 30 36 45 82 45 143 0 52 -5 71 -29 109 -50
79 -149 109 -240 72 l-40 -16 -51 44 c-27 23 -50 45 -50 48 0 10 46 34 100 52
79 26 196 20 271 -14z m-1931 -38 l0 -60 -165 0 -165 0 0 -70 0 -70 145 0 145
0 0 -60 0 -60 -145 0 -145 0 0 -70 0 -70 175 0 175 0 0 -60 0 -60 -250 0 -250
0 0 320 0 320 240 0 240 0 0 -60z m555 31 c43 -20 47 -24 30 -31 -11 -4 -54
-22 -95 -39 -59 -24 -90 -31 -142 -31 l-68 0 0 -56 c0 -50 -4 -60 -39 -102
-22 -26 -55 -76 -75 -112 l-36 -65 0 233 0 234 188 -4 c172 -3 191 -5 237 -27z
m2096 6 c93 -42 138 -112 139 -211 0 -76 -29 -139 -81 -175 -21 -14 -38 -28
-39 -31 0 -3 30 -48 66 -100 l65 -95 -78 -3 c-88 -3 -86 -5 -161 110 l-37 58
-67 0 -68 0 0 -85 0 -85 -75 0 -75 0 0 321 0 321 188 -4 c145 -3 195 -8 223
-21z m-1731 -137 c24 -6 25 -10 28 -93 l3 -87 85 0 c83 0 144 17 144 40 0 20
26 9 78 -33 l53 -42 -29 -26 c-16 -15 -35 -28 -43 -31 -9 -3 9 -35 54 -100 37
-53 67 -99 67 -102 0 -3 -36 -6 -80 -6 l-79 0 -58 85 -58 85 -67 0 -68 0 0
-85 0 -85 -75 0 -75 0 0 251 0 250 47 -7 c26 -4 59 -10 73 -14z m-244 -1 c15
-25 6 -135 -14 -176 -20 -38 -67 -86 -94 -95 -7 -3 13 -40 55 -100 37 -53 67
-99 67 -102 0 -3 -36 -6 -80 -6 l-80 0 -36 55 -37 55 17 66 c23 90 64 177 120
252 44 60 67 74 82 51z m-250 -141 c-51 -112 -67 -187 -73 -343 -8 -211 31
-385 131 -582 161 -320 431 -538 745 -603 l85 -17 -50 -17 c-65 -24 -226 -32
-306 -16 -342 66 -656 389 -759 780 -84 321 -13 637 183 815 34 30 65 55 69
55 4 0 -7 -33 -25 -72z m1250 -805 c10 -82 -2 -237 -25 -318 -38 -136 -50
-153 -164 -237 -100 -74 -107 -78 -158 -78 -113 0 -290 66 -412 154 -82 58
-180 154 -245 241 -50 67 -152 256 -152 283 0 9 122 12 574 12 l575 0 7 -57z
m327 -667 c33 -13 107 -90 107 -110 0 -6 -26 -29 -57 -51 -32 -22 -99 -81
-150 -132 -127 -125 -229 -174 -279 -132 -9 8 -23 29 -31 46 -17 42 -1 92 53
163 68 89 253 230 301 230 13 0 38 -6 56 -14z m384 -188 c48 -45 82 -140 69
-193 -10 -38 -286 -226 -404 -275 -137 -58 -202 -39 -202 59 1 86 66 189 188
294 173 150 276 184 349 115z m-954 -7 c51 -57 58 -75 60 -155 2 -63 6 -78 31
-110 35 -46 82 -76 118 -76 22 0 36 -11 63 -47 19 -27 44 -68 56 -93 11 -25
36 -61 54 -80 35 -37 589 -839 583 -844 -14 -13 -74 -37 -125 -50 -97 -25
-472 -15 -709 20 l-42 6 -45 116 c-25 65 -63 173 -85 242 -39 124 -51 173 -92
385 -12 61 -46 193 -75 295 -54 187 -95 341 -95 357 0 5 33 15 73 22 39 7 92
21 117 31 65 26 74 24 113 -19z m1156 -333 c51 -50 64 -84 69 -178 4 -92 -22
-277 -56 -385 l-18 -60 -59 88 -59 88 52 45 c68 60 78 78 57 110 -22 34 -47
30 -97 -13 -106 -92 -207 -152 -284 -168 -43 -8 -74 18 -81 72 -4 34 0 55 22
100 37 75 162 201 275 276 101 68 131 72 179 25z m-5529 -390 c0 -2 -14 -37
-31 -78 -45 -112 -80 -254 -86 -357 l-6 -93 -113 0 c-89 0 -114 3 -114 13 0 8
13 76 29 153 16 76 37 184 46 239 9 55 18 106 20 113 3 9 38 12 130 12 69 0
125 -1 125 -2z m654 -52 c-4 -30 -2 -67 4 -83 9 -26 5 -36 -33 -94 -53 -78
-80 -146 -96 -233 l-11 -66 -165 0 -164 0 6 83 c4 46 20 120 36 169 26 80 97
236 121 266 8 8 52 12 159 12 l149 0 -6 -54z m3496 33 c0 -41 52 -254 91 -375
21 -66 39 -124 39 -127 0 -4 -496 -7 -1103 -7 l-1103 0 -12 45 c-45 168 -197
355 -372 458 l-45 27 1253 0 1252 0 0 -21z m-2653 -28 c109 -38 215 -105 299
-190 120 -121 181 -250 191 -401 10 -163 -41 -294 -162 -415 -122 -122 -277
-185 -456 -186 -112 0 -289 36 -289 59 0 2 17 32 39 66 90 143 157 317 186
480 19 111 19 324 0 431 l-14 80 31 30 c17 16 37 40 46 53 18 28 30 28 129 -7z
m8336 -187 c70 -28 117 -72 117 -109 0 -13 -12 -50 -27 -82 -14 -32 -27 -61
-27 -64 -2 -15 -52 -114 -59 -117 -4 -2 -5 -7 -2 -11 7 -12 -111 -282 -120
-274 -4 5 -5 3 -2 -3 6 -10 -44 -138 -114 -291 -10 -23 -19 -47 -19 -53 0 -6
-5 -8 -11 -5 -6 4 -10 1 -8 -6 3 -28 -1 -40 -13 -33 -7 4 -8 3 -4 -5 10 -15
-34 -122 -47 -114 -6 3 -7 1 -3 -5 6 -10 -14 -68 -53 -153 -11 -24 -36 -80
-55 -124 -21 -51 -39 -79 -47 -77 -11 3 -11 1 -3 -8 9 -9 8 -18 -2 -38 -8 -15
-14 -34 -14 -42 0 -13 -2 -13 -11 0 -9 13 -10 12 -5 -3 3 -10 -8 -47 -26 -85
-17 -37 -32 -72 -33 -77 -9 -38 -49 -114 -58 -108 -6 4 -7 1 -3 -6 7 -10 -7
-53 -44 -136 -45 -102 -60 -136 -60 -140 0 -2 -12 -30 -27 -62 -14 -32 -27
-60 -28 -63 -10 -38 -31 -78 -38 -73 -6 3 -7 1 -3 -5 3 -6 -10 -46 -29 -90
-19 -44 -35 -85 -35 -91 0 -6 -5 -11 -12 -11 -6 0 -9 -3 -5 -6 3 -4 -1 -20 -9
-36 -19 -37 -71 -60 -110 -49 -63 18 -142 60 -158 82 -31 45 -87 -95 591 1494
490 1147 453 1065 487 1086 40 25 55 24 129 -7z m-3994 -624 c225 -1133 308
-1737 271 -1967 -24 -149 -75 -280 -152 -389 -44 -63 -100 -117 -112 -109 -3
3 -4 2 -1 -2 8 -10 -26 -43 -38 -36 -5 3 -7 2 -4 -4 7 -12 -45 -53 -68 -53 -8
0 -15 5 -15 12 0 6 -3 8 -6 5 -4 -4 -1 -13 5 -21 10 -12 4 -20 -41 -45 -279
-161 -688 -175 -1039 -35 -35 14 -71 27 -81 29 -25 5 -82 36 -90 49 -4 6 -8 8
-8 3 0 -9 -143 63 -148 75 -2 4 -9 8 -14 8 -25 0 -244 151 -363 251 -72 60
-82 73 -98 124 -9 31 -34 100 -54 153 -20 53 -36 103 -36 110 0 6 -4 12 -9 12
-4 0 -7 3 -6 8 1 4 -6 24 -15 46 -9 21 -15 42 -12 46 3 5 1 10 -4 12 -11 4
-117 258 -114 276 0 7 -2 11 -5 8 -3 -3 -23 33 -44 82 -51 116 -133 287 -144
300 -1 2 -19 7 -39 12 -20 5 -34 6 -31 3 3 -3 -2 -12 -10 -21 -11 -10 -14 -25
-9 -46 3 -17 7 -39 8 -48 1 -9 4 -15 8 -13 10 7 81 -153 73 -166 -4 -7 -3 -9
3 -6 11 7 111 -210 190 -413 24 -63 55 -142 68 -175 13 -33 40 -103 60 -155
127 -325 389 -1409 504 -2085 26 -150 34 -179 70 -248 23 -43 41 -84 41 -91 0
-10 -55 -14 -242 -20 -134 -3 -382 -11 -553 -16 -976 -29 -2353 4 -3135 76
-85 8 -175 15 -200 16 -53 3 -49 -23 -31 234 26 369 -17 675 -165 1171 -30
101 -56 191 -58 200 -1 10 -6 25 -9 33 -22 53 -37 112 -31 123 4 6 3 9 -1 4
-5 -4 -23 40 -41 99 -18 59 -39 113 -46 121 -9 8 -65 19 -149 29 -150 17 -174
21 -174 23 0 1 -23 4 -50 6 -64 5 -372 61 -445 81 -30 8 -64 17 -75 18 -11 2
-20 4 -20 6 0 1 -10 3 -21 4 -44 5 -184 49 -184 58 0 5 -5 6 -12 2 -7 -4 1 15
17 42 16 27 49 89 73 139 24 49 49 93 55 97 7 4 9 8 5 8 -4 0 15 44 41 98 27
53 57 116 67 140 10 23 21 42 24 42 4 0 7 6 7 13 0 17 85 207 92 207 4 0 7 8
8 18 1 9 12 40 24 67 13 28 23 52 24 55 0 3 24 64 52 135 76 193 127 328 164
438 l34 97 60 2 c33 1 89 4 125 6 36 2 211 5 390 7 275 4 340 7 420 24 52 11
133 23 179 27 72 6 97 13 169 50 75 38 188 82 227 88 8 1 18 5 21 9 17 17 75
3 170 -40 56 -26 100 -51 98 -54 -2 -4 5 -5 16 -2 12 3 20 0 20 -6 0 -7 4 -9
10 -6 5 3 19 1 30 -5 40 -21 235 -61 323 -66 165 -10 292 24 362 96 31 32 39
48 43 88 6 63 -10 111 -53 159 -64 71 -47 83 115 83 195 0 335 17 513 62 147
37 173 41 287 41 204 0 331 -46 600 -215 74 -46 176 -109 225 -138 244 -145
438 -293 604 -459 187 -187 262 -294 250 -357 -1 -5 0 -11 1 -14 1 -3 3 -12 5
-20 43 -168 64 -242 75 -255 26 -31 90 -8 90 32 0 22 -53 244 -230 957 -83
335 -149 611 -147 613 7 6 37 -9 33 -16 -2 -3 19 -7 48 -8 28 -1 127 -9 219
-17 193 -19 480 -22 549 -7 26 6 82 25 125 42 71 28 81 29 119 19 27 -8 58 -9
86 -4 23 5 49 8 55 7 7 0 11 3 8 7 -7 11 24 22 38 13 7 -3 9 -3 5 1 -4 5 7 29
23 56 16 26 32 68 35 94 7 50 41 89 55 63 4 -6 34 -149 68 -317z m4291 120 c9
-8 54 -51 99 -94 l82 -79 -22 -56 c-12 -31 -30 -69 -39 -86 -9 -16 -36 -76
-60 -132 -24 -56 -46 -101 -49 -99 -3 2 -7 -6 -7 -18 -1 -12 -13 -47 -26 -77
-13 -30 -80 -185 -148 -346 -69 -160 -129 -289 -134 -286 -5 3 -6 1 -2 -5 6
-10 -14 -66 -69 -190 -8 -17 -15 -35 -16 -40 -1 -4 -10 -23 -20 -44 -10 -20
-33 -72 -50 -115 -17 -43 -41 -100 -54 -128 -12 -27 -35 -81 -50 -120 -16 -38
-32 -74 -36 -78 -6 -8 -449 10 -457 18 -2 2 66 168 101 245 9 19 35 80 57 135
106 256 222 519 232 523 5 2 6 7 3 11 -4 7 163 408 236 568 10 23 19 47 19 53
0 6 5 8 11 5 6 -4 10 -1 8 6 -3 27 1 40 11 34 5 -3 7 0 5 8 -7 17 29 100 39
90 4 -4 4 0 0 10 -3 10 -1 17 6 17 6 0 9 4 6 8 -3 5 11 44 30 88 20 43 46 108
59 144 12 36 34 92 49 124 l27 60 71 -70 c39 -38 78 -76 88 -84z m-733 103
c-2 -10 -59 -144 -125 -298 -65 -154 -165 -388 -222 -520 -56 -132 -198 -465
-315 -740 -117 -275 -216 -516 -220 -536 -9 -49 10 -113 46 -154 l31 -35 -679
0 -678 0 -12 75 c-36 222 -196 430 -406 525 -115 52 -172 61 -414 67 l-221 6
-12 86 c-35 255 -176 1039 -258 1438 -11 51 -17 95 -14 98 3 3 793 5 1755 5
1661 0 1749 -1 1744 -17z m-9466 -19 c57 -62 137 -64 194 -4 l29 30 187 0 186
0 6 -45 c11 -78 56 -197 105 -275 48 -77 140 -176 205 -220 20 -14 37 -27 37
-30 0 -3 -24 -14 -52 -24 -29 -10 -94 -37 -143 -61 -72 -33 -107 -43 -167 -48
-42 -4 -121 -16 -175 -28 -76 -17 -116 -20 -178 -15 -44 3 -230 1 -412 -6
-183 -6 -335 -9 -339 -6 -3 3 17 80 45 170 41 137 103 360 152 551 l10 37 143
0 c141 0 143 0 167 -26z m2959 -74 c0 -114 9 -104 -110 -114 -36 -4 -117 -20
-180 -37 -147 -39 -294 -59 -446 -59 l-120 0 23 69 c12 38 26 107 29 155 l7
86 398 0 399 0 0 -100z m7693 -440 c48 -46 87 -89 87 -94 0 -10 -90 -224 -407
-966 -74 -173 -155 -365 -181 -427 l-47 -112 -40 0 c-66 0 -347 17 -351 22 -2
2 77 192 175 423 98 230 263 617 366 859 103 242 192 448 197 459 11 20 10 21
201 -164z m-6159 -287 c41 -169 74 -308 73 -309 -1 -2 -50 43 -107 100 -171
168 -343 299 -570 436 -58 35 -109 67 -114 72 -6 4 137 8 316 8 l326 0 76
-307z m6496 -29 c52 -50 114 -108 137 -130 l43 -39 -35 -79 c-41 -92 -43 -95
-55 -76 -6 9 -10 10 -10 3 0 -6 4 -14 9 -18 5 -3 -7 -42 -26 -88 -20 -45 -41
-95 -48 -112 -7 -16 -20 -46 -28 -65 -9 -19 -40 -92 -70 -163 -29 -70 -57
-124 -62 -120 -4 5 -5 3 -1 -4 3 -7 -5 -36 -19 -64 -14 -29 -25 -56 -25 -61 0
-5 -9 -27 -19 -51 -11 -23 -38 -85 -59 -137 l-40 -95 -59 -3 c-32 -1 -125 2
-208 8 -181 12 -195 13 -195 18 0 11 246 578 253 583 5 3 8 9 7 13 -3 13 33
96 42 96 5 0 6 5 3 10 -3 6 3 27 13 48 11 20 46 100 78 177 32 77 62 143 67
146 5 3 8 9 8 13 -3 15 12 56 20 56 5 0 8 3 7 8 -4 14 36 111 44 106 4 -3 5 1
2 9 -3 8 9 49 27 91 l33 76 35 -33 c20 -17 78 -73 131 -123z m420 -396 l123
-117 -163 -383 c-89 -211 -169 -396 -177 -412 l-15 -28 -191 7 c-106 4 -194 9
-196 10 -2 2 99 245 225 539 l228 535 21 -17 c12 -10 78 -70 145 -134z m292
-275 c45 -43 89 -85 98 -94 24 -25 499 -472 553 -519 60 -54 73 -76 56 -97
-14 -16 -21 -16 -284 0 -38 3 -152 8 -252 12 -101 4 -183 11 -183 14 0 3 -46
6 -102 6 -191 1 -302 7 -289 14 7 5 12 12 12 17 -2 16 20 74 28 74 4 0 7 8 8
18 1 15 64 165 124 297 12 28 23 52 24 55 6 27 39 99 44 96 3 -2 7 6 7 19 2
32 55 165 66 165 4 0 45 -35 90 -77z m-4972 -213 c25 -6 83 -29 130 -52 154
-74 282 -230 324 -394 9 -34 16 -71 16 -83 l0 -21 -466 0 -466 0 9 53 c10 66
10 315 0 431 l-8 89 208 -6 c114 -3 228 -10 253 -17z m3365 -499 l930 -48
-992 -2 -992 -1 22 50 c21 48 23 50 62 49 22 0 459 -22 970 -48z"/>
<path d="M7560 14631 l0 -211 50 0 50 0 0 54 0 53 78 6 c129 8 182 53 182 152
0 112 -56 148 -237 153 l-123 4 0 -211z m220 116 c35 -17 50 -53 39 -87 -13
-34 -46 -50 -109 -50 l-50 0 0 75 0 75 48 0 c26 0 58 -6 72 -13z"/>
<path d="M8015 14640 c-50 -111 -91 -206 -93 -211 -2 -5 19 -9 47 -9 50 0 50
0 70 45 l20 45 95 0 94 0 18 -45 17 -45 52 0 53 0 -93 208 -93 207 -49 3 -48
3 -90 -201z m169 21 c14 -36 26 -68 26 -73 0 -4 -27 -8 -61 -8 -57 0 -60 1
-54 21 12 38 56 132 59 128 2 -2 16 -33 30 -68z"/>
<path d="M8525 14822 c-137 -66 -168 -240 -61 -346 51 -52 111 -71 196 -63 33
3 77 14 98 25 l37 19 3 86 3 87 -45 0 -45 0 -3 -62 -3 -62 -38 -9 c-84 -20
-167 44 -167 129 0 109 122 172 213 110 l35 -24 31 32 32 33 -42 29 c-37 25
-53 29 -123 32 -63 2 -90 -2 -121 -16z"/>
<path d="M8890 14630 l0 -210 165 0 165 0 0 35 0 35 -115 0 -115 0 0 50 0 50
95 0 95 0 0 40 0 40 -95 0 -95 0 0 45 0 45 110 0 110 0 0 40 0 40 -160 0 -160
0 0 -210z"/>
<path d="M9467 14833 c-4 -3 -7 -98 -7 -210 l0 -203 50 0 49 0 3 122 3 122
100 -122 c99 -121 100 -122 143 -122 l42 0 0 211 0 210 -47 -3 -48 -3 -3 -123
-3 -123 -102 125 c-96 118 -104 126 -138 126 -20 0 -39 -3 -42 -7z"/>
<path d="M10042 14819 c-157 -78 -158 -304 -1 -383 90 -45 200 -33 269 30 56
51 73 93 68 175 -4 83 -39 139 -108 175 -60 32 -166 34 -228 3z m199 -95 c107
-103 -6 -283 -137 -218 -137 68 -90 264 59 251 36 -3 56 -12 78 -33z"/>
<path d="M10407 14833 c-4 -3 -7 -21 -7 -40 l0 -33 70 0 70 0 0 -170 0 -170
50 0 50 0 0 170 0 170 65 0 65 0 0 40 0 40 -178 0 c-98 0 -182 -3 -185 -7z"/>
<path d="M10997 14833 c-4 -3 -7 -98 -7 -210 l0 -203 50 0 50 0 0 75 0 75 100
0 100 0 0 40 0 40 -100 0 -100 0 0 55 0 55 110 0 110 0 0 40 0 40 -153 0 c-85
0 -157 -3 -160 -7z"/>
<path d="M11461 14814 c-69 -35 -103 -86 -109 -164 -5 -72 11 -122 55 -171 94
-104 298 -85 367 34 49 84 42 180 -16 252 -65 78 -194 100 -297 49z m187 -74
c61 -37 79 -122 39 -181 -48 -73 -136 -86 -199 -30 -40 35 -51 115 -23 167 33
61 120 82 183 44z"/>
<path d="M11880 14688 c0 -140 2 -157 23 -193 61 -110 262 -114 329 -7 21 34
23 51 26 195 l4 157 -51 0 -51 0 0 -144 c0 -136 -1 -146 -22 -171 -14 -15 -38
-28 -59 -31 -31 -5 -42 -1 -69 24 l-34 29 -4 147 -5 146 -43 0 -44 0 0 -152z"/>
<path d="M12357 14833 c-4 -3 -7 -98 -7 -210 l0 -203 50 0 50 0 0 123 1 122
32 -35 c17 -20 64 -75 102 -123 68 -84 71 -86 113 -87 l42 0 0 211 0 210 -47
-3 -48 -3 -5 -120 -5 -120 -100 123 c-94 115 -101 122 -135 122 -20 0 -40 -3
-43 -7z"/>
<path d="M12840 14631 l0 -211 133 0 c118 0 138 3 177 23 24 12 58 39 74 60
27 33 31 48 34 111 5 100 -24 154 -109 198 -38 19 -63 23 -176 26 l-133 4 0
-211z m237 118 c100 -37 119 -169 34 -226 -27 -18 -48 -23 -102 -23 l-69 0 0
130 0 130 54 0 c30 0 67 -5 83 -11z"/>
<path d="M10161 13779 c-487 -60 -878 -344 -1109 -805 -88 -175 -141 -353
-179 -594 -22 -145 -25 -602 -5 -750 54 -384 178 -683 392 -945 273 -333 697
-512 1165 -492 554 24 983 305 1239 813 140 277 200 571 200 984 0 270 -17
418 -69 627 -153 609 -573 1033 -1132 1143 -123 25 -381 35 -502 19z m424
-109 c33 -6 87 -15 120 -21 129 -22 346 -125 479 -229 29 -21 84 -72 124 -113
233 -235 381 -553 439 -943 25 -170 25 -582 -1 -749 -60 -395 -196 -690 -430
-932 -179 -186 -389 -305 -624 -354 -267 -54 -530 -45 -757 27 -139 44 -378
171 -381 202 -1 6 -2 16 -3 21 0 5 -9 12 -18 15 -15 6 -15 4 2 -14 34 -38 0
-20 -55 29 -30 27 -55 55 -55 62 -1 8 -6 13 -12 12 -19 -4 -139 141 -137 164
1 7 -2 11 -6 8 -20 -12 -187 301 -176 330 3 9 2 13 -4 10 -19 -12 -86 238
-117 435 -23 154 -23 580 0 715 9 50 19 107 21 127 23 168 127 438 235 606 47
72 55 81 70 70 14 -11 14 -11 4 3 -11 13 -5 25 38 75 77 89 132 143 147 144 8
0 10 5 6 12 -5 8 -2 9 9 5 9 -3 16 -2 14 4 -3 15 110 93 218 150 143 75 296
120 470 139 93 10 293 5 380 -10z"/>
<path d="M11293 13155 c0 -8 4 -12 9 -9 5 3 6 10 3 15 -9 13 -12 11 -12 -6z"/>
<path d="M10260 13131 c-176 -33 -322 -132 -426 -287 -118 -179 -179 -422
-191 -764 -15 -442 64 -784 230 -996 80 -100 204 -189 307 -218 61 -17 230
-36 230 -25 0 3 26 9 58 12 67 7 165 44 232 87 49 32 133 114 164 162 10 15
22 26 26 23 4 -3 7 1 7 8 -1 6 18 52 42 100 40 84 90 232 91 270 0 9 3 17 8
17 4 0 7 15 8 33 0 17 6 77 14 132 14 106 20 565 8 565 -5 0 -8 15 -8 33 0 35
-23 175 -40 245 -6 24 -7 48 -4 54 4 6 3 8 -3 5 -6 -4 -14 5 -18 21 -14 60
-81 200 -122 256 -23 32 -40 64 -36 69 3 6 2 7 -4 4 -11 -7 -56 36 -48 46 3 4
2 5 -1 3 -4 -3 -29 12 -58 33 -69 51 -120 76 -192 95 -75 19 -214 28 -274 17z
m241 -117 c232 -68 379 -279 445 -639 15 -82 19 -151 19 -385 0 -321 -11 -406
-71 -588 -79 -239 -202 -377 -383 -432 -62 -19 -89 -22 -182 -18 -103 4 -113
6 -194 47 -197 98 -316 298 -372 626 -28 170 -26 596 5 757 42 222 118 390
226 499 58 58 165 122 232 138 65 15 215 13 275 -5z"/>
<path d="M9695 11109 c-3 -4 2 -6 10 -5 21 3 28 13 10 13 -9 0 -18 -4 -20 -8z"/>
<path d="M11319 10853 c-12 -16 -12 -17 2 -6 9 7 20 9 24 5 5 -4 5 -1 1 6 -9
16 -11 15 -27 -5z"/>
<path d="M11226 10718 c3 -5 10 -6 15 -3 13 9 11 12 -6 12 -8 0 -12 -4 -9 -9z"/>
<path d="M9509 10623 c-13 -16 -12 -17 4 -4 16 13 21 21 13 21 -2 0 -10 -8
-17 -17z"/>
<path d="M7057 13608 c-19 -24 -248 -329 -508 -678 -261 -349 -612 -819 -781
-1045 l-307 -410 -1 -286 c0 -209 3 -288 12 -297 9 -9 226 -12 915 -12 l903 0
0 -343 c0 -253 3 -346 12 -355 9 -9 117 -12 425 -12 397 0 413 1 423 19 6 13
10 143 10 355 l0 336 263 0 c191 0 266 3 275 12 9 9 12 101 12 353 0 252 -3
344 -12 353 -9 9 -84 12 -275 12 l-263 0 0 304 c0 304 0 305 -22 320 -19 14
-75 16 -403 16 -289 0 -385 -3 -398 -12 -15 -12 -17 -45 -19 -318 l-3 -305
-379 -3 c-309 -2 -377 0 -373 11 4 12 147 209 883 1217 122 168 295 404 383
525 88 121 161 227 161 236 0 9 -8 23 -18 32 -17 15 -63 17 -450 17 l-431 0
-34 -42z m672 -75 c-12 -16 -11 -16 8 0 14 13 33 17 61 15 l40 -3 -107 -145
c-58 -80 -190 -260 -292 -400 -102 -140 -372 -511 -601 -825 -229 -313 -423
-587 -431 -607 -14 -34 -15 -44 -4 -35 2 1 11 -4 19 -10 11 -10 128 -13 488
-13 430 -1 474 1 491 16 18 16 19 37 19 316 l0 299 270 -3 c149 -2 270 0 270
5 0 4 23 7 50 7 l51 0 -1 -306 c-1 -279 0 -308 16 -323 11 -10 31 -15 48 -14
17 1 133 4 259 6 l227 4 0 -275 0 -275 -72 7 c-40 3 -158 6 -262 7 -150 0
-192 -2 -203 -14 -12 -11 -14 -75 -13 -362 l0 -348 -67 6 c-38 4 -188 7 -335
7 l-268 0 0 343 c0 253 -3 346 -12 355 -9 9 -226 12 -915 12 l-903 0 0 225 c0
192 2 229 16 251 14 20 19 22 33 12 14 -11 14 -11 4 2 -10 13 -4 26 33 75 25
33 50 59 55 57 6 -1 8 2 4 8 -8 13 14 42 25 35 4 -3 7 1 6 8 -1 14 115 175
127 176 5 1 5 -4 1 -11 -4 -7 -3 -8 4 -4 6 4 9 12 6 19 -6 15 193 283 208 279
5 -1 7 2 3 7 -7 13 150 222 161 213 4 -4 4 -2 1 4 -4 6 5 24 18 38 14 15 25
30 25 33 0 3 12 20 28 38 15 18 60 78 101 134 41 55 78 98 83 95 5 -3 8 2 6
12 -2 13 2 18 12 16 8 -2 12 0 8 3 -10 11 11 47 23 40 5 -4 8 -3 7 2 -1 4 6
22 17 38 25 38 336 458 344 465 4 3 15 18 25 34 14 23 20 26 28 15 8 -11 9
-10 4 3 -3 12 21 52 72 119 42 56 81 108 87 115 8 11 67 14 309 14 283 0 298
-1 285 -17z"/>
<path d="M6859 12343 c-13 -16 -12 -17 4 -4 9 7 17 15 17 17 0 8 -8 3 -21 -13z"/>
<path d="M6296 12333 c-6 -14 -5 -15 5 -6 7 7 10 15 7 18 -3 3 -9 -2 -12 -12z"/>
<path d="M6685 12119 c-4 -6 -5 -12 -2 -15 2 -3 7 2 10 11 7 17 1 20 -8 4z"/>
<path d="M6663 12085 c0 -8 4 -12 9 -9 5 3 6 10 3 15 -9 13 -12 11 -12 -6z"/>
<path d="M6620 12015 c-7 -9 -11 -17 -9 -20 3 -2 10 5 17 15 14 24 10 26 -8 5z"/>
<path d="M6419 11733 c-13 -16 -12 -17 4 -4 9 7 17 15 17 17 0 8 -8 3 -21 -13z"/>
<path d="M13732 13633 c-11 -10 -195 -252 -408 -538 -213 -286 -574 -769 -801
-1073 l-413 -553 0 -275 c0 -171 4 -283 10 -295 10 -19 31 -19 915 -19 l905 0
0 -336 c0 -212 4 -342 10 -355 10 -18 26 -19 423 -19 308 0 416 3 425 12 9 9
12 102 12 355 l0 344 266 -2 c188 -1 269 2 277 10 15 15 10 690 -5 709 -8 9
-75 12 -274 12 l-264 0 0 304 c0 304 0 305 -22 320 -19 14 -75 16 -403 16
-222 0 -386 -4 -395 -10 -13 -8 -16 -58 -20 -317 l-5 -308 -377 -3 c-208 -1
-378 0 -378 4 0 5 123 176 1059 1458 204 280 371 517 371 527 0 10 -7 25 -16
33 -14 14 -68 16 -444 16 -393 0 -429 -1 -448 -17z m722 -135 c-21 -29 -152
-210 -293 -403 -140 -192 -436 -599 -658 -902 -221 -304 -412 -566 -424 -582
-25 -35 -28 -80 -5 -93 8 -5 226 -9 488 -8 422 0 474 2 490 17 17 15 18 39 18
315 l0 298 228 0 c126 0 270 3 320 6 l92 7 0 -306 c0 -274 2 -307 17 -323 15
-15 43 -16 277 -13 l261 4 0 -270 0 -270 -65 1 c-36 0 -155 2 -265 3 -180 2
-200 1 -212 -15 -10 -14 -13 -97 -13 -362 l0 -345 -82 6 c-46 4 -194 7 -331 7
l-247 0 0 331 c1 301 -1 333 -17 357 -9 15 -16 32 -15 37 2 6 -2 4 -9 -2 -10
-10 -205 -13 -906 -13 l-893 0 0 225 0 226 51 67 c28 37 55 66 61 64 5 -1 7 1
4 6 -2 4 10 27 27 49 18 23 70 94 117 157 46 64 88 116 92 116 4 0 8 5 8 10 0
11 162 234 191 262 9 9 20 14 25 10 4 -4 4 -1 0 5 -6 11 75 133 122 182 9 9
25 31 34 47 10 16 22 28 28 26 7 -1 9 2 6 7 -8 13 63 103 76 95 7 -4 8 -2 4 5
-9 13 63 113 76 105 4 -3 5 1 2 9 -3 9 4 22 18 31 12 9 19 16 15 16 -4 0 25
43 64 95 40 53 74 93 77 90 3 -3 -5 -17 -19 -32 -18 -20 -19 -24 -4 -13 28 21
36 33 30 49 -6 16 50 96 68 96 7 1 11 6 10 12 -3 16 156 229 169 225 5 -1 7 2
4 6 -3 5 5 21 19 36 13 15 24 27 22 29 -6 7 138 185 146 180 6 -3 7 -1 3 5 -4
6 3 25 15 42 l23 30 349 0 349 0 -38 -52z"/>
<path d="M14333 13515 c0 -8 4 -12 9 -9 5 3 6 10 3 15 -9 13 -12 11 -12 -6z"/>
<path d="M14300 13455 c-7 -9 -11 -17 -9 -20 3 -2 10 5 17 15 14 24 10 26 -8
5z"/>
<path d="M14020 13070 c-9 -6 -10 -10 -3 -10 6 0 15 5 18 10 8 12 4 12 -15 0z"/>
<path d="M13255 12761 c-3 -5 -2 -12 3 -15 5 -3 9 1 9 9 0 17 -3 19 -12 6z"/>
<path d="M13654 12568 l-19 -23 23 19 c21 18 27 26 19 26 -2 0 -12 -10 -23
-22z"/>
<path d="M13565 12461 c-3 -5 -2 -12 3 -15 5 -3 9 1 9 9 0 17 -3 19 -12 6z"/>
<path d="M13263 12055 c0 -8 4 -12 9 -9 5 3 6 10 3 15 -9 13 -12 11 -12 -6z"/>
<path d="M6892 7140 c-81 -50 -76 -182 9 -226 49 -25 97 -18 134 19 62 62 55
158 -14 204 -42 28 -86 29 -129 3z"/>
<path d="M3975 8344 c-83 -20 -243 -100 -350 -175 -118 -83 -394 -359 -513
-514 -410 -530 -780 -1256 -1025 -2011 -196 -603 -294 -1124 -304 -1626 -6
-282 3 -415 37 -584 88 -427 315 -659 615 -629 223 22 443 152 710 420 320
321 596 727 865 1270 585 1184 855 2518 670 3302 -69 290 -222 489 -419 547
-67 20 -204 20 -286 0z m295 -107 c78 -29 183 -136 232 -237 105 -216 145
-472 135 -855 -26 -1003 -473 -2332 -1103 -3280 -154 -232 -300 -414 -468
-580 -406 -402 -741 -491 -960 -254 -104 112 -175 296 -212 556 -23 158 -23
519 0 731 138 1272 790 2783 1525 3535 333 341 619 470 851 384z"/>
<path d="M3533 7215 c-158 -44 -314 -175 -488 -407 -500 -668 -793 -1820 -578
-2275 101 -214 317 -244 545 -75 205 151 443 487 617 869 143 314 239 627 297
968 25 145 26 501 1 605 -58 248 -207 367 -394 315z m153 -104 c108 -49 165
-214 166 -476 1 -336 -86 -719 -256 -1133 -145 -354 -344 -679 -531 -867 -97
-99 -232 -180 -315 -191 -177 -22 -283 243 -252 629 33 407 166 851 380 1272
203 399 438 678 642 762 67 27 112 29 166 4z"/>
<path d="M11640 9025 l0 -105 91 0 c90 0 91 0 125 34 38 38 44 77 20 125 -21
39 -56 51 -151 51 l-85 0 0 -105z"/>
<path d="M15956 6043 c-6 -14 -5 -15 5 -6 7 7 10 15 7 18 -3 3 -9 -2 -12 -12z"/>
<path d="M9615 5311 c-3 -5 -2 -12 3 -15 5 -3 9 1 9 9 0 17 -3 19 -12 6z"/>
<path d="M9689 5263 c-13 -16 -12 -17 4 -4 9 7 17 15 17 17 0 8 -8 3 -21 -13z"/>
<path d="M7438 5179 c-33 -19 -19 -93 22 -112 31 -15 94 -59 77 -53 -11 4 -16
2 -12 -5 4 -6 14 -8 22 -5 9 4 22 1 29 -5 8 -6 14 -8 14 -4 0 4 6 3 13 -2 6
-6 30 -16 52 -23 22 -7 54 -20 70 -28 17 -9 33 -15 36 -14 4 0 22 -3 40 -9
133 -39 219 -51 379 -53 143 -1 170 1 193 17 27 17 34 47 21 81 -5 13 -25 15
-147 10 -86 -4 -166 -2 -202 5 -33 6 -72 13 -87 15 -15 3 -46 10 -70 17 -24 7
-48 13 -55 15 -69 13 -255 92 -248 105 3 4 0 11 -6 15 -8 4 -9 3 -5 -4 13 -22
-12 -12 -41 16 -33 29 -68 38 -95 21z"/>
<path d="M7393 5125 c0 -8 4 -12 9 -9 5 3 6 10 3 15 -9 13 -12 11 -12 -6z"/>
<path d="M10135 5001 c-3 -5 -2 -12 3 -15 5 -3 9 1 9 9 0 17 -3 19 -12 6z"/>
<path d="M10355 4871 c-3 -5 -2 -12 3 -15 5 -3 9 1 9 9 0 17 -3 19 -12 6z"/>
<path d="M10430 4821 c0 -6 4 -13 10 -16 6 -3 7 1 4 9 -7 18 -14 21 -14 7z"/>
<path d="M10590 4666 c0 -2 7 -7 16 -10 8 -3 12 -2 9 4 -6 10 -25 14 -25 6z"/>
<path d="M10745 4561 c-3 -5 -2 -12 3 -15 5 -3 9 1 9 9 0 17 -3 19 -12 6z"/>
<path d="M12189 3333 c-13 -16 -12 -17 4 -4 9 7 17 15 17 17 0 8 -8 3 -21 -13z"/>
<path d="M10600 3261 c0 -6 4 -13 10 -16 6 -3 7 1 4 9 -7 18 -14 21 -14 7z"/>
<path d="M7172 2537 c-1 -7 -4 -24 -8 -38 -5 -23 5 -39 76 -117 77 -87 223
-224 289 -273 26 -19 29 -25 18 -38 -10 -14 -10 -14 3 -5 12 10 31 1 97 -46
45 -31 79 -61 75 -65 -4 -5 -2 -5 4 -2 6 3 33 -8 60 -26 27 -18 62 -38 77 -45
17 -7 25 -17 21 -24 -4 -6 -3 -8 4 -4 13 8 83 -24 76 -36 -3 -4 2 -5 10 -2 9
3 16 1 16 -5 0 -6 6 -11 14 -11 7 0 55 -20 107 -44 257 -119 560 -195 799
-200 172 -4 198 1 220 37 14 22 16 35 9 44 -6 6 -8 16 -5 21 3 5 -70 8 -162 8
-95 0 -199 5 -242 13 -101 17 -266 59 -309 78 -20 8 -40 16 -46 17 -57 14 -95
29 -95 37 0 6 -4 8 -9 4 -9 -5 -59 13 -71 25 -3 3 -12 6 -20 8 -47 11 -312
151 -305 162 2 4 -2 7 -9 7 -23 0 -116 64 -109 76 3 5 1 7 -5 3 -14 -8 -88 42
-84 57 2 7 0 9 -4 5 -9 -9 -59 25 -105 73 -21 21 -39 36 -42 33 -6 -6 -207
194 -207 207 0 10 -6 17 -48 53 -25 21 -88 30 -90 13z"/>
<path d="M7840 1856 c0 -2 7 -7 16 -10 8 -3 12 -2 9 4 -6 10 -25 14 -25 6z"/>
<path d="M16380 5655 c13 -14 26 -25 28 -25 3 0 -5 11 -18 25 -13 14 -26 25
-28 25 -3 0 5 -11 18 -25z"/>
<path d="M16423 5613 c4 -3 1 -13 -6 -22 -10 -14 -10 -14 4 -4 9 7 20 9 25 5
4 -4 2 1 -5 11 -7 9 -16 17 -19 17 -3 0 -2 -3 1 -7z"/>
<path d="M17053 5015 c0 -8 4 -12 9 -9 5 3 6 10 3 15 -9 13 -12 11 -12 -6z"/>
<path d="M17970 4151 c0 -10 19 -25 25 -20 1 2 -3 10 -11 17 -8 7 -14 8 -14 3z"/>
<path d="M18050 4076 c0 -2 8 -10 18 -17 15 -13 16 -12 3 4 -13 16 -21 21 -21
13z"/>
</g>
</svg>
