<?xml version="1.0" standalone="no"?>
<!DOCTYPE svg PUBLIC "-//W3C//DTD SVG 20010904//EN"
 "http://www.w3.org/TR/2001/REC-SVG-20010904/DTD/svg10.dtd">
<svg version="1.0" xmlns="http://www.w3.org/2000/svg"
 width="500.000000pt" height="500.000000pt" viewBox="0 0 500.000000 500.000000"
 preserveAspectRatio="xMidYMid meet">

<g transform="translate(0.000000,500.000000) scale(0.100000,-0.100000)"
fill="#000000" stroke="none">
<path d="M2963 4649 c3 -13 15 -58 27 -99 25 -88 23 -202 -5 -261 l-18 -37
-45 29 c-86 54 -132 64 -307 64 l-160 0 -90 -45 c-49 -24 -93 -46 -97 -48 -3
-1 -14 21 -24 50 -31 91 -22 236 21 341 12 28 -30 21 -78 -12 -65 -45 -123
-110 -155 -176 -73 -147 -67 -291 17 -437 41 -70 41 -70 23 -101 -13 -24 -17
-55 -17 -130 1 -84 -1 -97 -15 -90 -51 23 -310 107 -315 101 -3 -3 6 -41 20
-84 69 -206 197 -380 311 -419 35 -12 39 -17 54 -72 20 -75 58 -140 110 -191
36 -35 40 -43 40 -91 l0 -51 -55 -27 -54 -27 -56 39 c-169 116 -324 349 -392
590 -15 52 -30 95 -34 95 -21 0 -167 -236 -257 -415 -158 -313 -251 -576 -276
-780 l-6 -50 22 39 c38 66 107 134 154 152 73 28 169 -2 207 -65 13 -22 15 -5
19 185 6 229 26 391 64 507 21 66 23 68 18 27 -13 -136 -25 -435 -22 -570 l3
-155 -71 -140 c-40 -77 -87 -167 -107 -200 -91 -158 -137 -232 -156 -255 -21
-25 -21 -25 -37 -5 -63 80 -142 299 -179 496 -25 134 -27 158 -22 339 5 218
20 315 72 474 89 277 271 557 475 733 78 67 279 205 317 217 18 6 20 12 16 49
-3 23 -7 44 -9 46 -6 7 -151 -78 -240 -140 -136 -97 -325 -291 -416 -429 -181
-276 -270 -534 -298 -873 -24 -294 38 -610 173 -872 105 -203 318 -455 485
-572 37 -26 80 -57 95 -70 50 -41 309 -162 434 -202 196 -65 312 -85 498 -85
173 -1 247 9 425 55 375 98 694 308 911 602 159 214 244 386 303 612 111 426
37 919 -197 1310 -166 278 -408 511 -665 640 -68 34 -74 33 -70 -16 3 -38 7
-43 57 -70 356 -197 635 -537 766 -934 63 -191 80 -303 79 -540 0 -203 -1
-214 -32 -335 -44 -174 -143 -414 -161 -394 -5 5 -48 62 -96 127 -62 84 -112
168 -173 290 l-86 172 -1 185 c-1 179 -11 293 -41 470 -19 117 -17 126 12 45
67 -188 104 -405 104 -619 l0 -91 23 27 c37 44 87 68 143 68 66 0 133 -43 183
-117 19 -29 37 -50 40 -48 14 15 -84 349 -139 476 -86 197 -173 342 -395 659
l-60 85 -8 -55 c-20 -139 -113 -370 -200 -502 -43 -64 -156 -174 -195 -189
-19 -7 -39 -5 -76 8 -28 10 -54 22 -58 28 -4 5 -8 30 -8 55 0 37 7 52 35 85
50 57 95 147 102 205 3 29 11 50 18 50 60 0 183 123 242 241 41 83 110 276
101 284 -3 3 -74 -22 -159 -55 -85 -33 -157 -60 -160 -60 -4 0 -4 29 -1 65 4
51 0 78 -17 125 l-22 61 30 48 c64 105 89 267 56 373 -37 123 -158 262 -254
293 -21 6 -23 5 -18 -16z m-798 -221 c0 -147 20 -200 111 -296 35 -37 64 -75
64 -85 0 -59 -62 -127 -116 -127 -26 0 -26 1 14 30 60 43 57 94 -3 54 -14 -9
-39 -14 -61 -12 l-37 3 38 25 c43 28 82 76 72 87 -4 3 -24 -3 -45 -14 -62 -34
-87 -36 -105 -9 -17 25 -13 36 12 36 14 0 61 38 61 49 0 4 -21 5 -46 2 -51 -4
-58 1 -68 42 -6 24 -4 27 19 27 15 0 36 5 48 12 20 11 19 12 -23 22 -41 10
-45 14 -48 44 -3 31 -2 32 32 32 25 0 36 4 36 15 0 8 -6 15 -14 15 -34 0 -30
54 4 65 11 4 17 12 14 20 -5 11 29 75 39 75 1 0 2 -51 2 -112z m955 39 c0 -5
9 -20 20 -34 26 -33 25 -41 -5 -49 -33 -8 -26 -30 8 -27 21 1 27 -4 32 -27 9
-40 0 -50 -41 -50 -56 0 -41 -28 22 -39 32 -6 32 -6 19 -38 -15 -35 -47 -44
-86 -23 -15 8 -19 7 -19 -4 0 -17 46 -56 66 -56 17 0 18 -22 2 -38 -18 -18
-47 -14 -95 13 l-43 26 0 -25 c0 -28 63 -86 93 -86 10 0 15 -4 12 -10 -10 -16
-68 -11 -108 9 l-38 19 7 -21 c8 -29 32 -55 55 -62 26 -9 24 -25 -3 -25 -33 1
-64 21 -93 60 -41 55 -34 87 31 150 62 61 95 119 114 199 12 51 9 151 -5 196
-4 13 4 8 24 -15 17 -19 31 -38 31 -43z m-530 -212 c5 -14 16 -25 23 -25 8 0
19 11 25 25 9 19 19 25 42 25 28 0 30 -2 29 -37 0 -21 -9 -56 -19 -78 -17 -38
-19 -38 -19 -12 -2 48 -36 26 -47 -31 -4 -18 -10 -32 -13 -32 -4 0 -17 19 -29
43 -12 23 -32 59 -43 80 -25 44 -19 67 16 67 18 0 28 -7 35 -25z m-96 -49 c9
-27 14 -51 12 -53 -1 -2 -20 18 -40 44 -34 44 -36 49 -20 60 22 16 27 11 48
-51z m304 52 c17 -17 16 -21 -13 -54 -14 -16 -25 -32 -25 -36 0 -5 -5 -8 -11
-8 -12 0 -4 62 12 92 11 21 21 22 37 6z m-388 -66 c0 -13 -11 -10 -38 11 -10
8 -10 13 0 24 10 13 14 12 25 -3 7 -10 13 -24 13 -32z m450 8 c-24 -16 -31
-11 -19 11 8 16 14 18 22 10 9 -9 8 -14 -3 -21z m-382 -173 c37 -34 82 -69
100 -76 51 -21 104 -1 177 70 34 32 67 59 73 59 7 0 12 -16 12 -37 1 -52 30
-112 74 -151 30 -26 45 -32 81 -32 46 0 58 -13 33 -38 -9 -9 -7 -17 8 -34 40
-46 49 -78 49 -174 l0 -93 35 33 c57 55 95 75 269 144 32 12 -33 -144 -73
-177 -12 -10 -13 -7 -6 21 4 18 13 45 19 61 15 38 -2 36 -67 -9 -36 -24 -68
-57 -98 -104 -43 -66 -45 -68 -74 -60 -17 5 -30 8 -30 7 0 -1 7 -20 15 -42 29
-82 12 -180 -47 -267 -18 -26 -48 -55 -65 -63 -25 -12 -33 -23 -33 -41 0 -16
-14 -40 -39 -64 -22 -22 -51 -54 -65 -73 -66 -86 -214 -114 -311 -58 -65 37
-173 151 -181 189 -4 17 -15 34 -29 40 -33 15 -91 90 -120 156 -31 70 -33 138
-5 184 l21 34 -30 -7 c-25 -5 -33 -1 -62 36 -56 71 -112 123 -159 146 -24 12
-46 20 -48 18 -2 -2 3 -25 12 -51 19 -57 15 -65 -12 -27 -27 39 -74 134 -69
140 6 5 194 -65 227 -85 14 -9 41 -31 61 -50 l37 -34 1 98 c1 143 4 181 19
196 6 6 12 20 12 29 0 14 7 16 38 12 28 -3 46 2 77 22 61 40 89 89 90 157 0
32 4 58 8 58 4 0 38 -28 75 -63z m1039 -1069 c-6 -103 -21 -173 -43 -203 -31
-42 -32 5 -2 113 16 59 32 124 35 145 10 68 16 38 10 -55z m-1717 -81 c39
-119 44 -157 21 -157 -11 0 -39 69 -57 140 -12 50 -20 159 -10 149 2 -2 23
-62 46 -132z m1408 -121 c99 -29 202 -64 228 -77 81 -39 135 -102 173 -199 19
-47 49 -115 67 -151 19 -36 34 -72 34 -80 -1 -17 -59 47 -80 88 -82 157 -141
240 -199 278 -20 13 -88 42 -151 64 -156 54 -272 103 -278 119 -6 19 15 15
206 -42z m-948 36 c0 -11 -171 -95 -320 -158 -130 -55 -171 -89 -212 -174 -14
-30 -37 -77 -50 -105 -92 -189 -240 -427 -256 -411 -3 3 17 43 45 88 93 152
157 290 211 453 20 61 87 131 157 164 27 13 93 38 145 57 52 18 129 47 170 63
78 30 110 37 110 23z m802 -135 c52 -32 232 -192 282 -251 81 -95 83 -115 22
-183 -36 -39 -47 -46 -57 -35 -7 6 -22 12 -33 12 -11 0 -49 15 -85 33 -60 29
-74 32 -152 31 -47 -1 -110 -7 -139 -14 -49 -12 -54 -11 -67 6 -8 10 -13 30
-11 44 3 21 10 26 47 32 59 10 144 38 152 51 8 11 0 45 -12 53 -9 5 -117 -23
-134 -36 -5 -4 -19 -10 -29 -14 -17 -6 -18 -3 -12 41 3 25 13 54 22 64 8 9 49
27 90 40 42 13 74 28 74 36 0 39 -161 19 -204 -25 -31 -33 -56 -91 -56 -131 0
-36 -13 -46 -31 -25 -25 31 -16 113 22 189 l34 70 80 17 c112 23 153 22 197
-5z m-1125 -154 c5 -13 -71 -56 -81 -46 -3 4 -6 17 -6 29 0 17 7 24 28 27 39
6 55 4 59 -10z m706 -77 c-49 -71 -55 -93 -60 -259 -5 -141 -8 -159 -25 -168
-24 -13 -25 -8 -32 118 -11 189 25 317 105 371 l34 24 3 -22 c2 -13 -9 -40
-25 -64z m-672 -16 c23 -42 25 -117 3 -148 -13 -19 -24 -22 -80 -22 -35 0 -64
1 -64 3 0 1 9 20 20 42 12 24 20 59 20 90 0 46 3 52 28 62 40 16 53 12 73 -27z
m1543 -71 c14 -17 29 -42 32 -56 14 -54 -80 -190 -171 -248 -77 -48 -81 -49
-106 -9 -12 19 -20 36 -18 38 2 2 26 14 53 27 84 41 166 157 166 235 0 24 4
44 9 44 5 0 21 -14 35 -31z m316 -315 c63 -66 117 -132 135 -164 7 -13 6 -13
-11 0 -20 17 -174 151 -209 183 -11 11 -53 46 -92 80 -68 57 -87 89 -67 110 9
8 163 -124 244 -209z m-1742 150 c26 -18 30 -69 6 -78 -9 -3 -33 -6 -53 -6
-21 0 -66 -3 -100 -6 -59 -7 -61 -8 -61 -35 l0 -29 63 5 c34 3 82 8 106 10 25
3 50 0 57 -6 15 -12 18 -57 6 -75 -4 -7 -54 -15 -115 -19 l-108 -7 3 -27 3
-26 107 4 c100 3 107 2 117 -18 27 -49 -16 -71 -141 -71 -66 0 -69 -1 -66 -22
3 -22 6 -23 86 -19 78 3 82 2 82 -18 0 -30 -36 -41 -131 -41 -89 0 -134 17
-188 70 -32 33 -39 66 -21 101 8 15 6 24 -10 41 -24 26 -26 75 -5 105 14 20
14 25 -1 57 -16 32 -16 37 -1 60 21 32 66 44 192 55 148 12 149 12 173 -5z
m882 -53 c4 -50 2 -69 -11 -84 -27 -34 -39 -12 -39 74 0 78 1 80 23 77 20 -3
23 -10 27 -67z m194 47 c3 -13 10 -66 16 -118 6 -52 15 -124 20 -160 5 -36 14
-103 20 -150 11 -83 16 -124 41 -305 6 -49 15 -108 20 -130 4 -22 4 -44 -1
-49 -4 -4 -64 -12 -132 -16 -180 -12 -545 -39 -683 -50 -66 -6 -139 -10 -162
-10 -51 0 -48 -18 -33 210 18 270 40 664 40 696 l0 32 77 11 c87 13 98 7 88
-44 -19 -98 -19 -103 15 -135 42 -39 86 -40 130 -3 29 24 31 30 26 67 -18 129
-18 136 -5 140 8 3 62 7 122 11 l107 6 0 -30 c0 -17 -8 -46 -17 -66 -16 -33
-16 -37 0 -71 24 -48 74 -70 120 -50 47 19 71 59 62 105 -3 20 -8 57 -11 82
l-6 46 71 2 c66 2 71 1 75 -21z m-1524 -176 c0 -5 -7 -30 -16 -56 -45 -132 52
-296 175 -296 45 0 45 -15 0 -51 l-40 -32 -50 24 c-53 24 -116 86 -144 138
-19 37 -30 144 -21 194 5 25 17 42 44 60 39 28 52 32 52 19z m1791 -119 c31
-43 88 -125 129 -183 40 -58 93 -131 117 -163 48 -63 53 -83 23 -92 -11 -3
-20 -10 -20 -14 0 -8 -119 -102 -171 -135 l-27 -17 -5 53 c-9 90 -8 338 2 338
5 0 40 -37 78 -82 102 -124 106 -128 117 -128 5 0 0 10 -11 23 -11 12 -44 58
-73 102 -29 44 -67 98 -84 120 -42 52 -150 215 -159 238 -9 25 1 41 17 28 7
-6 37 -45 67 -88z m-1951 -16 c0 -17 -12 -30 -42 -47 -24 -13 -62 -36 -85 -52
-46 -31 -63 -35 -63 -15 0 29 139 137 178 137 6 0 12 -10 12 -23z m414 -464
c3 -97 5 -178 3 -179 -9 -9 -267 158 -267 173 0 6 60 63 115 108 41 34 112 74
131 75 7 0 13 -59 18 -177z"/>
<path d="M2210 3794 c0 -8 5 -12 10 -9 6 4 8 11 5 16 -9 14 -15 11 -15 -7z"/>
<path d="M2829 3743 c-15 -2 -50 -24 -79 -49 -28 -24 -60 -44 -71 -44 -30 0
-22 -30 11 -43 19 -7 31 -20 35 -38 10 -46 86 -99 142 -99 30 0 89 31 111 59
59 74 20 184 -75 210 -21 6 -40 10 -43 9 -3 0 -17 -3 -31 -5z m79 -95 c35 -35
-8 -99 -55 -82 -37 13 -50 37 -35 68 9 20 19 26 45 26 18 0 38 -5 45 -12z"/>
<path d="M2291 3711 c-58 -54 -68 -129 -25 -181 47 -55 115 -75 167 -49 39 20
77 62 77 86 0 18 9 27 40 39 46 19 50 29 15 38 -14 4 -42 21 -63 40 -52 47
-74 56 -130 56 -41 0 -55 -5 -81 -29z m128 -65 c22 -26 9 -69 -22 -80 -49 -17
-90 23 -69 68 9 21 19 26 46 26 18 0 39 -6 45 -14z"/>
<path d="M2490 3396 c0 -26 13 -40 50 -51 14 -4 33 -14 43 -23 23 -20 72 -20
95 1 10 10 25 17 34 17 21 0 48 33 48 58 0 18 -6 22 -29 22 -15 0 -39 -8 -52
-18 -40 -31 -56 -32 -94 -6 -20 13 -49 24 -65 24 -25 0 -30 -4 -30 -24z"/>
<path d="M2285 3358 c-31 -16 -45 -39 -45 -71 0 -32 16 -67 31 -67 6 0 7 5 4
11 -9 14 3 61 14 54 5 -3 23 -30 41 -61 73 -131 151 -181 295 -191 77 -5 88
-4 139 21 64 32 122 93 163 174 16 31 34 57 39 57 5 0 10 -15 12 -32 4 -40 15
-42 30 -8 31 68 -6 125 -83 125 -25 0 -45 -3 -45 -7 0 -5 16 -18 35 -31 19
-12 35 -26 35 -31 0 -10 -80 -25 -215 -41 -70 -9 -122 -8 -235 4 -80 8 -158
19 -174 25 l-29 11 36 28 c20 15 36 30 37 35 0 11 -62 8 -85 -5z m252 -158
c67 -11 217 -2 276 16 17 5 16 2 -4 -37 -17 -35 -23 -40 -33 -28 -16 20 -273
19 -288 -2 -7 -11 -11 -11 -15 -1 -3 7 -16 26 -30 43 l-26 30 24 -5 c13 -3 56
-10 96 -16z"/>
<path d="M2606 2941 c-15 -16 -15 -22 -4 -40 19 -31 39 -34 65 -10 30 29 29
35 -7 54 -36 19 -33 19 -54 -4z"/>
<path d="M2723 1745 c-55 -24 -69 -83 -33 -142 26 -44 51 -55 88 -42 58 20 83
126 40 166 -32 29 -58 34 -95 18z"/>
</g>
</svg>
